<svg xmlns="http://www.w3.org/2000/svg" viewBox="0 0 552.86 656.24"><defs><style>.cls-1{fill:#fff;}</style></defs><g id="Layer_2" data-name="Layer 2"><g id="Layer_1-2" data-name="Layer 1"><path class="cls-1" d="M183,656.24h-12.9c-2.18-.4-4.37-.74-6.54-1.19-14.34-3-26.54-10.14-37.75-19.26-14.22-11.56-26-25.41-37.29-39.72C63.36,564.32,42.9,529.92,28.15,492.15,13.47,454.55,3.47,415.87.74,375.47c-.22-3.2-.49-6.4-.74-9.6v-23c.12-.75.29-1.49.36-2.24.64-7.26,1-14.55,1.93-21.78,3.45-27.89,11.88-54.14,26.21-78.43,17.33-29.36,41.08-51.79,71.68-66.9a158.06,158.06,0,0,1,52.73-15.39c9.16-1,18.35-1.51,27.57-.31,14.61,1.89,28.65,6,42.53,10.71,15.23,5.21,30.44,10.45,45.74,15.43,6.3,2.05,12.8,3.24,19.45,1.12,4.31-1.37,8.73-2.4,13-3.85,16.92-5.72,33.72-11.79,50.72-17.25,16.5-5.31,33.44-8.72,50.87-8.52a188.5,188.5,0,0,1,44.8,6.33c32.22,8.29,59.6,24.41,80.83,50.35,2.36,2.89,4.57,5.91,6.93,9l-1.74,1.2c-5,3.42-10.15,6.65-15,10.3-30.6,23.08-50.1,52.94-55.18,91.41-3.16,23.94-1.54,47.55,6.48,70.44,12.47,35.59,36.72,61.15,68.91,79.73,4.49,2.59,9.27,4.69,14,7.07-.15.5-.28,1-.45,1.5a404.56,404.56,0,0,1-22.26,52.47C518,558.69,503,580.27,486.77,601.05c-10.42,13.35-21.54,26.05-35.15,36.32-20.51,15.48-43.19,21.6-68.69,16.21-12.82-2.71-25.08-7-37.2-11.84-16.42-6.55-33.33-11.08-51.1-11.77-21.47-.83-41.81,4.21-61.76,11.66-11.26,4.21-22.7,8-34.18,11.52C193.62,654.73,188.21,655.25,183,656.24Z"/><path class="cls-1" d="M414.52,0c0,6.85.33,13.59,0,20.3-2.13,37.46-19.11,68-44.64,94.37C356.09,128.9,340.51,140.55,322,148a100,100,0,0,1-42.53,7.23c-1.89-.09-2.41-.76-2.57-2.56-2.19-24.85,3.63-48,15-69.9C313.32,41.62,347,15.73,391.5,3.59c6.62-1.81,13.56-2.41,20.36-3.54A19.73,19.73,0,0,1,414.52,0Z"/></g></g></svg>